# xmcd CD database file
#
# Track frame offsets:
#	150
#	14679
#	29302
#	48207
#	64698
#	72959
#	89055
#	111009
#	126085
#	135594
#	160338
#	177354
#
# Disc length: 2432 seconds
#
# Revision: 0
# Processed by: cddbd v1.5.1PL0 Copyright (c) Steve Scherf et al.
# Submitted via: CDex 1.50
#
DISCID=a5097e0c
DTITLE=Friend'n Fellow - Covered
DYEAR=2005
DGENRE=Jazz
TTITLE0=Light My Fire
TTITLE1=Fly Like An Eagle
TTITLE2=I Still Haven't Found What I'm Looking For
TTITLE3=Bad Love
TTITLE4=In The Summertime
TTITLE5=Grandma's Hands
TTITLE6=One More Day
TTITLE7=How Will I Know
TTITLE8=Can't Buy Me Love
TTITLE9=Cajun Moon
TTITLE10=Skylark
TTITLE11=What A Wonderful World
EXTD=YEAR: 2005
EXTT0=
EXTT1=
EXTT2=
EXTT3=
EXTT4=
EXTT5=
EXTT6=
EXTT7=
EXTT8=
EXTT9=
EXTT10=
EXTT11=
PLAYORDER=
